<svg xmlns="http://www.w3.org/2000/svg" xmlns:xlink="http://www.w3.org/1999/xlink" width="50" zoomAndPan="magnify" viewBox="0 0 37.5 37.499999" height="50" preserveAspectRatio="xMidYMid meet" version="1.2"><defs/><g id="46e986ea19"><g style="fill:#3b3937;fill-opacity:1;"><g transform="translate(14.765371, 19.819063)"><path style="stroke:none" d="M 1.484375 0.046875 C 1.203125 0.046875 0.96875 -0.015625 0.78125 -0.140625 C 0.59375 -0.265625 0.453125 -0.429688 0.359375 -0.640625 C 0.265625 -0.859375 0.21875 -1.113281 0.21875 -1.40625 C 0.21875 -1.695312 0.265625 -1.953125 0.359375 -2.171875 C 0.453125 -2.390625 0.59375 -2.554688 0.78125 -2.671875 C 0.976562 -2.796875 1.226562 -2.859375 1.53125 -2.859375 C 1.789062 -2.859375 1.988281 -2.8125 2.125 -2.71875 C 2.269531 -2.632812 2.34375 -2.53125 2.34375 -2.40625 C 2.34375 -2.3125 2.304688 -2.238281 2.234375 -2.1875 C 2.171875 -2.144531 2.078125 -2.125 1.953125 -2.125 C 1.953125 -2.375 1.910156 -2.550781 1.828125 -2.65625 C 1.753906 -2.757812 1.632812 -2.8125 1.46875 -2.8125 C 1.195312 -2.8125 1.003906 -2.695312 0.890625 -2.46875 C 0.773438 -2.238281 0.71875 -1.890625 0.71875 -1.421875 C 0.71875 -0.941406 0.78125 -0.582031 0.90625 -0.34375 C 1.039062 -0.113281 1.253906 0 1.546875 0 C 1.722656 0 1.867188 -0.046875 1.984375 -0.140625 C 2.097656 -0.234375 2.179688 -0.382812 2.234375 -0.59375 C 2.296875 -0.570312 2.328125 -0.519531 2.328125 -0.4375 C 2.328125 -0.375 2.296875 -0.300781 2.234375 -0.21875 C 2.179688 -0.144531 2.09375 -0.0820312 1.96875 -0.03125 C 1.84375 0.0195312 1.679688 0.046875 1.484375 0.046875 Z M 1.484375 0.046875 "/></g></g><g style="fill:#3b3937;fill-opacity:1;"><g transform="translate(12.154356, 19.819082)"><path style="stroke:none" d="M 0.140625 0 L 0.140625 -0.046875 L 0.21875 -0.046875 C 0.3125 -0.046875 0.382812 -0.0664062 0.4375 -0.109375 C 0.488281 -0.148438 0.515625 -0.21875 0.515625 -0.3125 L 0.515625 -2.515625 C 0.515625 -2.609375 0.488281 -2.675781 0.4375 -2.71875 C 0.382812 -2.757812 0.3125 -2.78125 0.21875 -2.78125 L 0.140625 -2.78125 L 0.140625 -2.828125 L 1.21875 -2.828125 C 1.914062 -2.828125 2.265625 -2.597656 2.265625 -2.140625 C 2.265625 -1.742188 2.003906 -1.53125 1.484375 -1.5 L 1.484375 -1.484375 C 1.796875 -1.472656 2.023438 -1.398438 2.171875 -1.265625 C 2.316406 -1.140625 2.390625 -0.972656 2.390625 -0.765625 C 2.390625 -0.253906 2.039062 0 1.34375 0 Z M 0.96875 -1.5 L 1.21875 -1.5 C 1.414062 -1.5 1.554688 -1.546875 1.640625 -1.640625 C 1.734375 -1.734375 1.78125 -1.894531 1.78125 -2.125 C 1.78125 -2.363281 1.734375 -2.53125 1.640625 -2.625 C 1.554688 -2.726562 1.410156 -2.78125 1.203125 -2.78125 L 0.96875 -2.78125 Z M 0.96875 -0.046875 L 1.328125 -0.046875 C 1.535156 -0.046875 1.679688 -0.0976562 1.765625 -0.203125 C 1.859375 -0.316406 1.90625 -0.5 1.90625 -0.75 C 1.90625 -1.007812 1.859375 -1.191406 1.765625 -1.296875 C 1.679688 -1.398438 1.535156 -1.453125 1.328125 -1.453125 L 0.96875 -1.453125 Z M 0.96875 -0.046875 "/></g></g><g style="fill:#3b3937;fill-opacity:1;"><g transform="translate(17.890101, 18.273026)"><path style="stroke:none" d="M 0.125 0 L 0.125 -1 L 0.46875 -1 C 0.539062 -1 0.597656 -0.984375 0.640625 -0.953125 C 0.691406 -0.929688 0.726562 -0.898438 0.75 -0.859375 C 0.769531 -0.828125 0.78125 -0.785156 0.78125 -0.734375 C 0.78125 -0.691406 0.769531 -0.65625 0.75 -0.625 C 0.738281 -0.601562 0.71875 -0.582031 0.6875 -0.5625 C 0.664062 -0.539062 0.640625 -0.53125 0.609375 -0.53125 L 0.609375 -0.515625 C 0.640625 -0.515625 0.671875 -0.503906 0.703125 -0.484375 C 0.734375 -0.460938 0.757812 -0.429688 0.78125 -0.390625 C 0.800781 -0.359375 0.8125 -0.316406 0.8125 -0.265625 C 0.8125 -0.210938 0.800781 -0.164062 0.78125 -0.125 C 0.757812 -0.09375 0.722656 -0.0625 0.671875 -0.03125 C 0.617188 -0.0078125 0.554688 0 0.484375 0 Z M 0.25 -0.109375 L 0.484375 -0.109375 C 0.554688 -0.109375 0.609375 -0.125 0.640625 -0.15625 C 0.679688 -0.1875 0.703125 -0.222656 0.703125 -0.265625 C 0.703125 -0.296875 0.691406 -0.328125 0.671875 -0.359375 C 0.660156 -0.390625 0.632812 -0.410156 0.59375 -0.421875 C 0.5625 -0.441406 0.523438 -0.453125 0.484375 -0.453125 L 0.25 -0.453125 Z M 0.25 -0.5625 L 0.46875 -0.5625 C 0.519531 -0.5625 0.5625 -0.578125 0.59375 -0.609375 C 0.632812 -0.640625 0.65625 -0.679688 0.65625 -0.734375 C 0.65625 -0.773438 0.640625 -0.8125 0.609375 -0.84375 C 0.585938 -0.875 0.539062 -0.890625 0.46875 -0.890625 L 0.25 -0.890625 Z M 0.25 -0.5625 "/></g></g><g style="fill:#3b3937;fill-opacity:1;"><g transform="translate(19.045859, 18.273026)"><path style="stroke:none" d="M 0.125 0 L 0.125 -1 L 0.71875 -1 L 0.71875 -0.890625 L 0.25 -0.890625 L 0.25 -0.5625 L 0.6875 -0.5625 L 0.6875 -0.453125 L 0.25 -0.453125 L 0.25 -0.109375 L 0.734375 -0.109375 L 0.734375 0 Z M 0.125 0 "/></g></g><g style="fill:#3b3937;fill-opacity:1;"><g transform="translate(20.129006, 18.273026)"><path style="stroke:none" d="M 0.15625 0 L 0.03125 0 L 0.40625 -1 L 0.53125 -1 L 0.890625 0 L 0.765625 0 L 0.671875 -0.28125 L 0.265625 -0.28125 Z M 0.296875 -0.390625 L 0.625 -0.390625 L 0.46875 -0.84375 Z M 0.296875 -0.390625 "/></g></g><g style="fill:#3b3937;fill-opacity:1;"><g transform="translate(21.320087, 18.273026)"><path style="stroke:none" d="M 0.78125 -1 L 0.90625 -1 L 0.90625 -0.34375 C 0.90625 -0.257812 0.882812 -0.191406 0.84375 -0.140625 C 0.8125 -0.0859375 0.765625 -0.046875 0.703125 -0.015625 C 0.640625 0.00390625 0.578125 0.015625 0.515625 0.015625 C 0.441406 0.015625 0.375 0.00390625 0.3125 -0.015625 C 0.257812 -0.046875 0.210938 -0.0859375 0.171875 -0.140625 C 0.140625 -0.191406 0.125 -0.257812 0.125 -0.34375 L 0.125 -1 L 0.25 -1 L 0.25 -0.34375 C 0.25 -0.289062 0.257812 -0.242188 0.28125 -0.203125 C 0.300781 -0.171875 0.332031 -0.144531 0.375 -0.125 C 0.414062 -0.101562 0.460938 -0.09375 0.515625 -0.09375 C 0.554688 -0.09375 0.597656 -0.101562 0.640625 -0.125 C 0.679688 -0.144531 0.710938 -0.171875 0.734375 -0.203125 C 0.765625 -0.242188 0.78125 -0.289062 0.78125 -0.34375 Z M 0.78125 -1 "/></g></g><g style="fill:#3b3937;fill-opacity:1;"><g transform="translate(22.60144, 18.273026)"><path style="stroke:none" d="M 0.0625 -0.890625 L 0.0625 -1 L 0.8125 -1 L 0.8125 -0.890625 L 0.5 -0.890625 L 0.5 0 L 0.375 0 L 0.375 -0.890625 Z M 0.0625 -0.890625 "/></g></g><g style="fill:#3b3937;fill-opacity:1;"><g transform="translate(23.745422, 18.273026)"><path style="stroke:none" d="M 0.03125 -1 L 0.171875 -1 L 0.453125 -0.53125 L 0.46875 -0.53125 L 0.734375 -1 L 0.875 -1 L 0.515625 -0.40625 L 0.515625 0 L 0.390625 0 L 0.390625 -0.40625 Z M 0.03125 -1 "/></g></g><g style="fill:#3b3937;fill-opacity:1;"><g transform="translate(18.955064, 19.769731)"><path style="stroke:none" d="M 0.921875 -0.6875 L 0.8125 -0.6875 C 0.800781 -0.726562 0.78125 -0.765625 0.75 -0.796875 C 0.71875 -0.835938 0.679688 -0.863281 0.640625 -0.875 C 0.609375 -0.894531 0.570312 -0.90625 0.53125 -0.90625 C 0.46875 -0.90625 0.410156 -0.890625 0.359375 -0.859375 C 0.304688 -0.828125 0.265625 -0.78125 0.234375 -0.71875 C 0.210938 -0.65625 0.203125 -0.582031 0.203125 -0.5 C 0.203125 -0.414062 0.210938 -0.34375 0.234375 -0.28125 C 0.265625 -0.21875 0.304688 -0.171875 0.359375 -0.140625 C 0.410156 -0.109375 0.46875 -0.09375 0.53125 -0.09375 C 0.570312 -0.09375 0.609375 -0.101562 0.640625 -0.125 C 0.679688 -0.144531 0.71875 -0.171875 0.75 -0.203125 C 0.78125 -0.234375 0.800781 -0.269531 0.8125 -0.3125 L 0.921875 -0.3125 C 0.910156 -0.238281 0.882812 -0.175781 0.84375 -0.125 C 0.8125 -0.0820312 0.765625 -0.046875 0.703125 -0.015625 C 0.648438 0.00390625 0.59375 0.015625 0.53125 0.015625 C 0.4375 0.015625 0.359375 -0.00390625 0.296875 -0.046875 C 0.234375 -0.0859375 0.179688 -0.144531 0.140625 -0.21875 C 0.0976562 -0.300781 0.078125 -0.394531 0.078125 -0.5 C 0.078125 -0.601562 0.0976562 -0.691406 0.140625 -0.765625 C 0.179688 -0.847656 0.234375 -0.910156 0.296875 -0.953125 C 0.359375 -0.992188 0.4375 -1.015625 0.53125 -1.015625 C 0.59375 -1.015625 0.648438 -1 0.703125 -0.96875 C 0.765625 -0.945312 0.8125 -0.910156 0.84375 -0.859375 C 0.882812 -0.816406 0.910156 -0.757812 0.921875 -0.6875 Z M 0.921875 -0.6875 "/></g></g><g style="fill:#3b3937;fill-opacity:1;"><g transform="translate(20.216792, 19.769731)"><path style="stroke:none" d="M 0.96875 -0.5 C 0.96875 -0.394531 0.945312 -0.300781 0.90625 -0.21875 C 0.863281 -0.144531 0.8125 -0.0859375 0.75 -0.046875 C 0.6875 -0.00390625 0.613281 0.015625 0.53125 0.015625 C 0.4375 0.015625 0.359375 -0.00390625 0.296875 -0.046875 C 0.234375 -0.0859375 0.179688 -0.144531 0.140625 -0.21875 C 0.0976562 -0.300781 0.078125 -0.394531 0.078125 -0.5 C 0.078125 -0.601562 0.0976562 -0.691406 0.140625 -0.765625 C 0.179688 -0.847656 0.234375 -0.910156 0.296875 -0.953125 C 0.359375 -0.992188 0.4375 -1.015625 0.53125 -1.015625 C 0.613281 -1.015625 0.6875 -0.992188 0.75 -0.953125 C 0.8125 -0.910156 0.863281 -0.847656 0.90625 -0.765625 C 0.945312 -0.691406 0.96875 -0.601562 0.96875 -0.5 Z M 0.84375 -0.5 C 0.84375 -0.582031 0.828125 -0.65625 0.796875 -0.71875 C 0.773438 -0.78125 0.738281 -0.828125 0.6875 -0.859375 C 0.632812 -0.890625 0.582031 -0.90625 0.53125 -0.90625 C 0.46875 -0.90625 0.410156 -0.890625 0.359375 -0.859375 C 0.304688 -0.828125 0.265625 -0.78125 0.234375 -0.71875 C 0.210938 -0.65625 0.203125 -0.582031 0.203125 -0.5 C 0.203125 -0.414062 0.210938 -0.34375 0.234375 -0.28125 C 0.265625 -0.21875 0.304688 -0.171875 0.359375 -0.140625 C 0.410156 -0.109375 0.46875 -0.09375 0.53125 -0.09375 C 0.582031 -0.09375 0.632812 -0.109375 0.6875 -0.140625 C 0.738281 -0.171875 0.773438 -0.21875 0.796875 -0.28125 C 0.828125 -0.34375 0.84375 -0.414062 0.84375 -0.5 Z M 0.84375 -0.5 "/></g></g><g style="fill:#3b3937;fill-opacity:1;"><g transform="translate(21.525618, 19.769731)"><path style="stroke:none" d="M 0.4375 0 L 0.125 0 L 0.125 -1 L 0.4375 -1 C 0.539062 -1 0.625 -0.976562 0.6875 -0.9375 C 0.757812 -0.894531 0.8125 -0.835938 0.84375 -0.765625 C 0.882812 -0.691406 0.90625 -0.601562 0.90625 -0.5 C 0.90625 -0.394531 0.882812 -0.304688 0.84375 -0.234375 C 0.8125 -0.160156 0.757812 -0.101562 0.6875 -0.0625 C 0.613281 -0.0195312 0.53125 0 0.4375 0 Z M 0.25 -0.109375 L 0.421875 -0.109375 C 0.546875 -0.109375 0.640625 -0.140625 0.703125 -0.203125 C 0.765625 -0.273438 0.796875 -0.375 0.796875 -0.5 C 0.796875 -0.625 0.765625 -0.71875 0.703125 -0.78125 C 0.640625 -0.851562 0.550781 -0.890625 0.4375 -0.890625 L 0.25 -0.890625 Z M 0.25 -0.109375 "/></g></g><g style="fill:#3b3937;fill-opacity:1;"><g transform="translate(22.775572, 19.769731)"><path style="stroke:none" d="M 0.125 0 L 0.125 -1 L 0.71875 -1 L 0.71875 -0.890625 L 0.25 -0.890625 L 0.25 -0.5625 L 0.6875 -0.5625 L 0.6875 -0.453125 L 0.25 -0.453125 L 0.25 -0.109375 L 0.734375 -0.109375 L 0.734375 0 Z M 0.125 0 "/></g></g></g></svg>