<svg xmlns="http://www.w3.org/2000/svg" version="1.1" xmlns:xlink="http://www.w3.org/1999/xlink" width="2000" height="155" viewBox="0 0 2000 155"><svg xml:space="preserve" width="2000" height="155" data-version="2" data-id="lg_hAhmP8BNmsl0vHNP7P" viewBox="0 0 554 155" x="0" y="0"><rect width="100%" height="100%" fill="transparent"></rect><path fill="#2f0101" d="M286.07 59.565h20.83q5.56 0 9.38-1.45 3.82-1.45 6.14-3.78 2.33-2.32 3.36-5.27 1.04-2.95 1.04-5.93 0-4.73-2.03-7.56-2.04-2.82-4.86-4.31-2.82-1.5-5.81-1.99-2.99-.5-4.81-.59v-.33q2.9 0 5.48-1.12 2.57-1.12 4.52-2.9 1.95-1.79 3.11-4.15 1.16-2.37 1.16-5.02 0-2.33-.99-4.74-1-2.4-3.03-4.39-2.04-2-5.23-3.28-3.2-1.29-7.51-1.29h-20.75Zm7.55-3.65v-25.4h9.13q4.07 0 7.06 1.08 2.98 1.08 4.93 2.9 1.95 1.83 2.91 4.24.95 2.4.95 5.06 0 2.91-1.03 5.15-1.04 2.24-2.78 3.81-1.75 1.58-4.11 2.37-2.37.79-5.02.79Zm0-29.05V5.115h10.13q3.23 0 5.52.92 2.28.91 3.73 2.4 1.45 1.5 2.12 3.41.66 1.9.66 3.81 0 2.41-.95 4.49-.96 2.07-2.66 3.56-1.7 1.5-3.9 2.33-2.2.83-4.69.83Z"></path><rect width="40.75" height="58.1" x="-20.38" y="-29.05" fill="none" rx="0" ry="0" transform="translate(306.94 31.02)"></rect><path fill="#2f0101" d="M374.46 40.645v-1.75q0-5.56-1.57-9.62-1.58-4.07-4.28-6.73-2.7-2.65-6.27-3.98-3.56-1.33-7.55-1.33-4.23 0-7.8 1.45-3.57 1.46-6.23 4.24-2.65 2.78-4.15 6.72-1.49 3.94-1.49 8.92 0 4.15 1.29 8.09 1.28 3.95 3.9 7.06 2.61 3.11 6.64 4.98 4.02 1.87 9.5 1.87 5.31 0 9.8-1.87 4.48-1.87 7.8-5.35l-2.66-2.66q-1.74 1.49-3.28 2.74-1.53 1.24-3.11 2.07-1.58.83-3.28 1.29-1.7.46-3.77.46-2.33 0-4.94-.71-2.62-.7-4.86-2.53-2.24-1.83-3.73-5.06-1.5-3.24-1.5-8.3Zm-31.54-3.32q0-3.32.71-6.44.7-3.11 2.16-5.52 1.45-2.4 3.69-3.85 2.24-1.46 5.31-1.46 5.89 0 9.17 4.61 3.28 4.61 3.28 12.66Z"></path><rect width="39.34" height="43.33" x="-19.67" y="-21.66" fill="none" rx="0" ry="0" transform="translate(355.29 39.4)"></rect><path fill="#2f0101" d="M400.52 17.155q6.06 0 9.38 1.7 3.32 1.7 4.86 4.44 1.53 2.74 1.78 6.31.25 3.57.25 7.3v22.66h-6.72v-4.07q-2.41 2.33-6.14 3.7-3.74 1.37-7.47 1.37-3.57 0-6.31-1.25-2.74-1.24-4.57-3.24-1.82-1.99-2.73-4.48-.92-2.49-.92-5.06 0-2.66 1-5.31.99-2.66 2.99-4.77 1.99-2.12 4.89-3.45 2.91-1.33 6.64-1.33 3.74 0 7.1 1.46 3.36 1.45 5.52 4.1v-3.57q0-6.8-2.03-10.12-2.04-3.32-7.43-3.32-2.33 0-4.07.58-1.74.58-3.11 1.62-1.37 1.04-2.53 2.57-1.17 1.54-2.33 3.45l-4.31-4.32q1.16-1.25 2.44-2.49 1.29-1.25 3.16-2.24 1.87-1 4.44-1.62 2.57-.62 6.22-.62m9.55 25.98q-.42-1-1.2-2.33-.79-1.33-2.04-2.57-1.24-1.25-2.99-2.12-1.74-.87-4.15-.87-2.4 0-4.39.96-2 .95-3.37 2.49-1.37 1.53-2.11 3.61-.75 2.07-.75 4.31 0 2.66.95 4.61.96 1.95 2.45 3.32 1.5 1.37 3.32 2.03 1.83.67 3.49.67 1.58 0 3.19-.58 1.62-.59 3.08-1.62 1.45-1.04 2.61-2.45 1.16-1.41 1.91-3.07Z"></path><rect width="34.86" height="43.41" x="-17.43" y="-21.7" fill="none" rx="0" ry="0" transform="translate(399.86 39.36)"></rect><path fill="#2f0101" d="M430.07 18.065v26.98q0 1.49.29 4.1.29 2.62 1.7 5.15 1.42 2.53 4.44 4.4 3.03 1.87 8.51 1.87 2.41.08 5.27-.96 2.87-1.04 5.77-3.94l1.33-1.33h.33v5.23h7.06v-41.5h-7.06v25.73q0 3.24-.91 5.56-.91 2.33-2.41 3.86-1.49 1.54-3.48 2.28-2 .75-4.15.75-3.49 0-5.44-1.37-1.95-1.37-2.91-3.19-.95-1.83-1.12-3.61-.16-1.79-.16-2.62v-27.39Z"></path><rect width="34.7" height="42.53" x="-17.35" y="-21.27" fill="none" rx="0" ry="0" transform="translate(447.92 39.83)"></rect><path fill="#2f0101" d="M474.15 21.385v-3.32h7.22V5.285h7.05v12.78h10.04v3.32h-10.04v27.56q0 .99.08 2.28.09 1.29.5 2.41.42 1.12 1.29 1.86.87.75 2.45.75 1.99 0 3.32-1.49 1.33-1.5 2.16-3.24l3.9 3.98q-4.07 4.07-9.22 4.07-2.15 0-4.23-.75-2.07-.74-3.69-2.28-1.62-1.53-2.62-3.94-.99-2.41-.99-5.65v-25.56Z"></path><rect width="27.97" height="54.28" x="-13.98" y="-27.14" fill="none" rx="0" ry="0" transform="translate(488.63 32.92)"></rect><path fill="#2f0101" d="m525.52 49.855-14.36-31.79h-7.55l18.59 41-4.4 10.79q-.74 1.91-1.95 3.07-1.2 1.17-2.78 1.17-1.49 0-2.86-.88-1.37-.87-2.12-2.53l-3.65 6.89q1.58 1.41 3.49 2.08 1.91.66 3.57.66 2.32 0 4.06-1.16 1.75-1.16 3.07-3.03 1.33-1.87 2.33-4.15.99-2.28 1.91-4.52l20.08-49.39h-4.06l-13.04 31.79Z"></path><rect width="39.34" height="62.25" x="-19.67" y="-31.13" fill="none" rx="0" ry="0" transform="translate(523.78 49.69)"></rect><path fill="#2f0101" d="M286.07 73.685v58.1h7.55v-25.65h3.65q2.33 0 3.86.42 1.54.41 2.78 1.41 1.25.99 2.33 2.57 1.08 1.58 2.57 3.9l6.56 9.71q1.24 1.91 2.44 3.49 1.21 1.58 2.62 2.7 1.41 1.12 3.19 1.78 1.79.67 4.28.67 1.83 0 2.99-.17 1.16-.17 2.32-.83v-3.07q-.41.08-.83.12-.41.04-.83.04-1.74 0-3.07-.49-1.33-.5-2.49-1.46-1.16-.95-2.24-2.32-1.08-1.37-2.24-3.11-3.49-5.07-5.4-8.1-1.91-3.02-3.03-4.68-1.12-1.66-1.82-2.41-.71-.75-1.7-1.25l-.83-.41v-.33q3.98-.25 6.84-1.75 2.87-1.49 4.69-3.73 1.83-2.24 2.66-4.86.83-2.61.83-5.1 0-2.24-.87-4.9-.87-2.65-2.99-4.94-2.12-2.28-5.77-3.82-3.65-1.53-9.21-1.53Zm7.55 3.65H302q3.16 0 5.69.91 2.53.92 4.36 2.54 1.82 1.61 2.78 3.86.95 2.24.95 4.89 0 2.24-.87 4.53-.87 2.28-2.61 4.15-1.75 1.86-4.28 3.03-2.53 1.16-5.85 1.16h-8.55Z"></path><rect width="47.14" height="59.1" x="-23.57" y="-29.55" fill="none" rx="0" ry="0" transform="translate(310.14 103.73)"></rect><path fill="#2f0101" d="M379.19 112.865v-1.75q0-5.56-1.57-9.63-1.58-4.06-4.28-6.72-2.7-2.65-6.26-3.98-3.57-1.33-7.56-1.33-4.23 0-7.8 1.45-3.57 1.45-6.22 4.23-2.66 2.79-4.15 6.73-1.5 3.94-1.5 8.92 0 4.15 1.29 8.09 1.28 3.95 3.9 7.06 2.61 3.11 6.64 4.98 4.02 1.87 9.5 1.87 5.31 0 9.8-1.87 4.48-1.87 7.8-5.36l-2.66-2.65q-1.74 1.49-3.28 2.74-1.53 1.24-3.11 2.07-1.58.83-3.28 1.29-1.7.46-3.77.46-2.33 0-4.94-.71-2.62-.71-4.86-2.53-2.24-1.83-3.73-5.06-1.5-3.24-1.5-8.3Zm-31.54-3.32q0-3.32.71-6.44.7-3.11 2.16-5.52 1.45-2.4 3.69-3.86 2.24-1.45 5.31-1.45 5.9 0 9.17 4.61 3.28 4.6 3.28 12.66Z"></path><rect width="39.34" height="43.33" x="-19.67" y="-21.66" fill="none" rx="0" ry="0" transform="translate(360.02 111.62)"></rect><path fill="#2f0101" d="M410.82 128.465q-2.99 0-5.77-.91-2.78-.92-4.94-2.95-2.16-2.03-3.45-5.4-1.28-3.36-1.28-8.25 0-5.07 1.41-8.59 1.41-3.53 3.53-5.65 2.11-2.11 4.69-3.07 2.57-.95 4.89-.95 3.82 0 6.64 1.99 2.83 1.99 3.74 4.9h5.73q-.83-2.99-2.66-4.94-1.83-1.95-4.19-3.16-2.37-1.2-5.07-1.66-2.69-.45-5.18-.45-5.23 0-9.22 1.7-3.98 1.7-6.72 4.6-2.74 2.91-4.11 6.81-1.37 3.9-1.37 8.3 0 4.65 1.5 8.67 1.49 4.03 4.27 6.98 2.78 2.94 6.68 4.64 3.9 1.71 8.8 1.71 5.48 0 9.59-1.83 4.11-1.83 6.93-3.98l-2.41-3.16q-2.9 2.41-5.77 3.53-2.86 1.12-6.26 1.12"></path><rect width="38.52" height="43.41" x="-19.26" y="-21.7" fill="none" rx="0" ry="0" transform="translate(407.25 111.58)"></rect><path fill="#2f0101" d="M437.79 90.285v41.5h7.06v-41.5Zm-.99-13.11q0 1.82 1.32 3.15 1.33 1.33 3.16 1.33 1.82 0 3.15-1.33 1.33-1.33 1.33-3.15 0-1.83-1.33-3.16t-3.15-1.33q-1.83 0-3.16 1.33-1.32 1.33-1.32 3.16"></path><rect width="8.96" height="59.1" x="-4.48" y="-29.55" fill="none" rx="0" ry="0" transform="translate(441.78 102.73)"></rect><path fill="#2f0101" d="M460.7 152.535h7.05v-27.56h.34q.83 2.16 2.2 3.66 1.37 1.49 3.11 2.4 1.74.92 3.69 1.33 1.95.42 3.94.42 4.15 0 7.64-1.54 3.49-1.54 6.02-4.36 2.53-2.82 3.94-6.85 1.41-4.02 1.41-8.92 0-4.98-1.41-8.96-1.41-3.99-3.94-6.85-2.53-2.86-6.02-4.4-3.49-1.53-7.64-1.53-9.87 0-12.94 7.63h-.34v-6.72h-7.05Zm7.05-45.65q0-2.74.88-5.19.87-2.45 2.44-4.23 1.58-1.79 3.7-2.82 2.11-1.04 4.52-1.04 2.57 0 4.94.95 2.37.96 4.11 3.03 1.74 2.08 2.78 5.4 1.04 3.32 1.04 7.97 0 4.73-1.04 8.05-1.04 3.32-2.82 5.43-1.79 2.12-4.11 3.07-2.33.96-4.9.96-2.32 0-4.4-.96-2.07-.95-3.65-2.82-1.58-1.86-2.53-4.52-.96-2.66-.96-6.06Z"></path><rect width="39.34" height="63.16" x="-19.67" y="-31.58" fill="none" rx="0" ry="0" transform="translate(480.87 121.45)"></rect><path fill="#2f0101" d="M547.68 112.865v-1.75q0-5.56-1.57-9.63-1.58-4.06-4.28-6.72-2.7-2.65-6.26-3.98-3.57-1.33-7.56-1.33-4.23 0-7.8 1.45-3.57 1.45-6.22 4.23-2.66 2.79-4.15 6.73-1.5 3.94-1.5 8.92 0 4.15 1.29 8.09 1.28 3.95 3.9 7.06 2.61 3.11 6.64 4.98 4.02 1.87 9.5 1.87 5.31 0 9.8-1.87 4.48-1.87 7.8-5.36l-2.66-2.65q-1.74 1.49-3.28 2.74-1.53 1.24-3.11 2.07-1.58.83-3.28 1.29-1.7.46-3.77.46-2.33 0-4.94-.71-2.62-.71-4.86-2.53-2.24-1.83-3.73-5.06-1.5-3.24-1.5-8.3Zm-31.54-3.32q0-3.32.71-6.44.7-3.11 2.16-5.52 1.45-2.4 3.69-3.86 2.24-1.45 5.31-1.45 5.9 0 9.17 4.61 3.28 4.6 3.28 12.66Z"></path><rect width="39.34" height="43.33" x="-19.67" y="-21.66" fill="none" rx="0" ry="0" transform="translate(528.51 111.62)"></rect><path fill="#2f0101" d="M5.32 126.175v-98.34h56.7q19.76 0 30.02 6.61 10.26 6.61 10.26 19.68 0 8.36-4.11 13.15-4.1 4.79-11.63 7.07-7.52 2.28-17.7 2.89l.6-1.07q7.45.15 14.06 1.07 6.62.91 11.63 3.34 5.02 2.43 7.91 6.76 2.88 4.34 2.88 11.33 0 9.12-4.86 15.12-4.86 6.01-13.53 9.05-8.66 3.04-20.06 3.34Zm20.22-16.72h39.82q9.58 0 14.74-3.12 5.17-3.11 5.17-9.95 0-5.02-3.04-7.3-3.04-2.28-8.05-2.81-5.02-.53-10.8-.53H25.54Zm0-39.98h35.72q9.57 0 14.74-2.81t5.17-9.65q0-6.84-5.17-9.65-5.17-2.81-13.68-2.81H25.54Z"></path><rect width="100.62" height="98.34" x="-50.31" y="-49.17" fill="none" rx="0" ry="0" transform="translate(56.13 77.5)"></rect><path fill="#2f0101" d="M115.98 126.175v-98.34h66.72q11.4 0 19.84 3.11 8.44 3.12 13.15 9.73 4.71 6.61 4.71 16.95 0 6.99-2.43 11.85-2.43 4.87-6.77 7.91-4.33 3.04-9.95 4.63-5.63 1.6-12.01 2.06l-2.13-1.22q10.64.15 17.48 1.75 6.84 1.59 10.26 5.77t3.42 12.39v23.41h-20.21v-22.04q0-5.62-1.98-8.74t-7.07-4.33q-5.09-1.22-14.67-1.22h-38.15v36.33Zm20.21-52.14h46.51q8.52 0 13-4.1t4.48-11.1q0-6.68-4.48-10.18t-13-3.5h-46.51Z"></path><rect width="104.42" height="98.34" x="-52.21" y="-49.17" fill="none" rx="0" ry="0" transform="translate(168.69 77.5)"></rect></svg></svg>